<?xml version="1.0" encoding="utf-8"?>
<!-- Generator: Adobe Illustrator 16.0.0, SVG Export Plug-In . SVG Version: 6.00 Build 0)  -->
<!DOCTYPE svg PUBLIC "-//W3C//DTD SVG 1.1//EN" "http://www.w3.org/Graphics/SVG/1.1/DTD/svg11.dtd">
<svg version="1.1" id="Layer_1" xmlns="http://www.w3.org/2000/svg" xmlns:xlink="http://www.w3.org/1999/xlink" x="0px" y="0px"
	 width="1417.32px" height="1417.32px" viewBox="0 0 1417.32 1417.32" enable-background="new 0 0 1417.32 1417.32"
	 xml:space="preserve">
<g>
	<path d="M1073.967,350.993c-54.123,0-98,43.876-98,98c0,21.438,6.889,41.262,18.564,57.395l-90.446,90.446l24.042,24.042
		l90.795-90.795c15.689,10.672,34.639,16.912,55.045,16.912c54.125,0,98-43.876,98-98S1128.092,350.993,1073.967,350.993z
		 M1073.967,514.993c-36.45,0-66-29.549-66-66s29.55-66,66-66c36.451,0,66,29.549,66,66S1110.418,514.993,1073.967,514.993z"/>
</g>
<g>
	<polygon points="386.953,397.184 485.058,296.514 548.438,456.418 	"/>
	<polygon points="456.102,301.744 443.777,305.878 417.188,226.609 451.087,215.571 	"/>
	<polygon points="416.084,309.528 408.718,320.24 308.86,251.566 338.23,217.679 	"/>
	<polygon points="383.646,353.479 382.804,366.738 326.534,348.701 321.084,317.188 	"/>
</g>
<g>
	<path d="M653.593,175.117v239.987h170.991V175.117H653.593z M805.085,392.606H673.092v-203.99h131.993V392.606z"/>
	<polygon points="712.392,202.361 695.972,218.782 686.083,208.893 680.112,214.864 697.226,231.977 719.617,209.586 	"/>
	<polygon points="712.392,237.526 695.972,253.946 686.083,244.057 680.112,250.028 697.226,267.141 719.617,244.75 	"/>
	<polygon points="712.392,272.69 695.972,289.111 686.083,279.222 680.112,285.193 697.226,302.306 719.617,279.916 	"/>
	
		<line fill="none" stroke="#000000" stroke-width="8" stroke-miterlimit="10" x1="736.088" y1="218.614" x2="785.585" y2="218.614"/>
	
		<line fill="none" stroke="#000000" stroke-width="8" stroke-miterlimit="10" x1="736.088" y1="254.987" x2="785.585" y2="254.987"/>
	<line fill="none" stroke="#000000" stroke-width="8" stroke-miterlimit="10" x1="736.088" y1="291.36" x2="785.585" y2="291.36"/>
	
		<line fill="none" stroke="#000000" stroke-width="8" stroke-miterlimit="10" x1="736.088" y1="327.734" x2="785.585" y2="327.734"/>
	
		<line fill="none" stroke="#000000" stroke-width="8" stroke-miterlimit="10" x1="736.088" y1="364.107" x2="785.585" y2="364.107"/>
</g>
</svg>
